<mxfile host="Electron" modified="2024-09-07T00:07:32.227Z" agent="Mozilla/5.0 (Windows NT 10.0; Win64; x64) AppleWebKit/537.36 (KHTML, like Gecko) draw.io/24.1.0 Chrome/120.0.6099.109 Electron/28.1.0 Safari/537.36" etag="VXH19yAMqeh7o3Em2EkD" version="24.1.0" type="device">
  <diagram name="PÃ¡gina-1" id="qYGX6ugHPkkqMKV3dael">
    <mxGraphModel dx="1035" dy="616" grid="1" gridSize="10" guides="1" tooltips="1" connect="1" arrows="1" fold="1" page="1" pageScale="1" pageWidth="827" pageHeight="1169" math="0" shadow="0">
      <root>
        <mxCell id="0" />
        <mxCell id="1" parent="0" />
        <mxCell id="sMjB-3dtgPWKzl6bNJH_-31" style="rounded=0;orthogonalLoop=1;jettySize=auto;html=1;" edge="1" parent="1" source="sMjB-3dtgPWKzl6bNJH_-2" target="sMjB-3dtgPWKzl6bNJH_-30">
          <mxGeometry relative="1" as="geometry" />
        </mxCell>
        <mxCell id="sMjB-3dtgPWKzl6bNJH_-2" value="Note" style="swimlane;fontStyle=1;align=center;verticalAlign=top;childLayout=stackLayout;horizontal=1;startSize=26;horizontalStack=0;resizeParent=1;resizeParentMax=0;resizeLast=0;collapsible=1;marginBottom=0;whiteSpace=wrap;html=1;" vertex="1" parent="1">
          <mxGeometry x="690" y="90" width="160" height="138" as="geometry" />
        </mxCell>
        <mxCell id="sMjB-3dtgPWKzl6bNJH_-3" value="+ id: int" style="text;strokeColor=none;fillColor=none;align=left;verticalAlign=top;spacingLeft=4;spacingRight=4;overflow=hidden;rotatable=0;points=[[0,0.5],[1,0.5]];portConstraint=eastwest;whiteSpace=wrap;html=1;" vertex="1" parent="sMjB-3dtgPWKzl6bNJH_-2">
          <mxGeometry y="26" width="160" height="26" as="geometry" />
        </mxCell>
        <mxCell id="sMjB-3dtgPWKzl6bNJH_-15" value="+ name: String" style="text;strokeColor=none;fillColor=none;align=left;verticalAlign=top;spacingLeft=4;spacingRight=4;overflow=hidden;rotatable=0;points=[[0,0.5],[1,0.5]];portConstraint=eastwest;whiteSpace=wrap;html=1;" vertex="1" parent="sMjB-3dtgPWKzl6bNJH_-2">
          <mxGeometry y="52" width="160" height="26" as="geometry" />
        </mxCell>
        <mxCell id="sMjB-3dtgPWKzl6bNJH_-16" value="+ content: String" style="text;strokeColor=none;fillColor=none;align=left;verticalAlign=top;spacingLeft=4;spacingRight=4;overflow=hidden;rotatable=0;points=[[0,0.5],[1,0.5]];portConstraint=eastwest;whiteSpace=wrap;html=1;" vertex="1" parent="sMjB-3dtgPWKzl6bNJH_-2">
          <mxGeometry y="78" width="160" height="26" as="geometry" />
        </mxCell>
        <mxCell id="sMjB-3dtgPWKzl6bNJH_-4" value="" style="line;strokeWidth=1;fillColor=none;align=left;verticalAlign=middle;spacingTop=-1;spacingLeft=3;spacingRight=3;rotatable=0;labelPosition=right;points=[];portConstraint=eastwest;strokeColor=inherit;" vertex="1" parent="sMjB-3dtgPWKzl6bNJH_-2">
          <mxGeometry y="104" width="160" height="8" as="geometry" />
        </mxCell>
        <mxCell id="sMjB-3dtgPWKzl6bNJH_-5" value="+ method(type): type" style="text;strokeColor=none;fillColor=none;align=left;verticalAlign=top;spacingLeft=4;spacingRight=4;overflow=hidden;rotatable=0;points=[[0,0.5],[1,0.5]];portConstraint=eastwest;whiteSpace=wrap;html=1;" vertex="1" parent="sMjB-3dtgPWKzl6bNJH_-2">
          <mxGeometry y="112" width="160" height="26" as="geometry" />
        </mxCell>
        <mxCell id="sMjB-3dtgPWKzl6bNJH_-6" value="NoteController" style="swimlane;fontStyle=1;align=center;verticalAlign=top;childLayout=stackLayout;horizontal=1;startSize=26;horizontalStack=0;resizeParent=1;resizeParentMax=0;resizeLast=0;collapsible=1;marginBottom=0;whiteSpace=wrap;html=1;" vertex="1" parent="1">
          <mxGeometry x="307" y="90" width="236" height="86" as="geometry" />
        </mxCell>
        <mxCell id="sMjB-3dtgPWKzl6bNJH_-7" value="+ noteService: NoteService" style="text;strokeColor=none;fillColor=none;align=left;verticalAlign=top;spacingLeft=4;spacingRight=4;overflow=hidden;rotatable=0;points=[[0,0.5],[1,0.5]];portConstraint=eastwest;whiteSpace=wrap;html=1;" vertex="1" parent="sMjB-3dtgPWKzl6bNJH_-6">
          <mxGeometry y="26" width="236" height="26" as="geometry" />
        </mxCell>
        <mxCell id="sMjB-3dtgPWKzl6bNJH_-8" value="" style="line;strokeWidth=1;fillColor=none;align=left;verticalAlign=middle;spacingTop=-1;spacingLeft=3;spacingRight=3;rotatable=0;labelPosition=right;points=[];portConstraint=eastwest;strokeColor=inherit;" vertex="1" parent="sMjB-3dtgPWKzl6bNJH_-6">
          <mxGeometry y="52" width="236" height="8" as="geometry" />
        </mxCell>
        <mxCell id="sMjB-3dtgPWKzl6bNJH_-9" value="+ getAllNotes(): ResponseEntity&amp;lt;?&amp;gt;" style="text;strokeColor=none;fillColor=none;align=left;verticalAlign=top;spacingLeft=4;spacingRight=4;overflow=hidden;rotatable=0;points=[[0,0.5],[1,0.5]];portConstraint=eastwest;whiteSpace=wrap;html=1;" vertex="1" parent="sMjB-3dtgPWKzl6bNJH_-6">
          <mxGeometry y="60" width="236" height="26" as="geometry" />
        </mxCell>
        <mxCell id="sMjB-3dtgPWKzl6bNJH_-21" style="edgeStyle=orthogonalEdgeStyle;rounded=0;orthogonalLoop=1;jettySize=auto;html=1;" edge="1" parent="1" source="sMjB-3dtgPWKzl6bNJH_-23" target="sMjB-3dtgPWKzl6bNJH_-17">
          <mxGeometry relative="1" as="geometry" />
        </mxCell>
        <mxCell id="sMjB-3dtgPWKzl6bNJH_-25" style="edgeStyle=orthogonalEdgeStyle;rounded=0;orthogonalLoop=1;jettySize=auto;html=1;" edge="1" parent="1" source="sMjB-3dtgPWKzl6bNJH_-27" target="sMjB-3dtgPWKzl6bNJH_-6">
          <mxGeometry relative="1" as="geometry" />
        </mxCell>
        <mxCell id="sMjB-3dtgPWKzl6bNJH_-14" value="&lt;p style=&quot;margin:0px;margin-top:4px;text-align:center;&quot;&gt;&lt;i&gt;&amp;lt;&amp;lt;Interface&amp;gt;&amp;gt;&lt;/i&gt;&lt;/p&gt;&lt;p style=&quot;margin:0px;margin-top:4px;text-align:center;&quot;&gt;&lt;i&gt;&lt;b&gt;NoteService&lt;/b&gt;&lt;/i&gt;&lt;br&gt;&lt;/p&gt;&lt;hr size=&quot;1&quot; style=&quot;border-style:solid;&quot;&gt;&lt;p style=&quot;margin:0px;margin-left:4px;&quot;&gt;+ getAllNotes(): List&amp;lt;Note&amp;gt;&lt;/p&gt;" style="verticalAlign=top;align=left;overflow=fill;html=1;whiteSpace=wrap;" vertex="1" parent="1">
          <mxGeometry x="330" y="380" width="190" height="140" as="geometry" />
        </mxCell>
        <mxCell id="sMjB-3dtgPWKzl6bNJH_-17" value="NoteServiceImpl" style="swimlane;fontStyle=1;align=center;verticalAlign=top;childLayout=stackLayout;horizontal=1;startSize=26;horizontalStack=0;resizeParent=1;resizeParentMax=0;resizeLast=0;collapsible=1;marginBottom=0;whiteSpace=wrap;html=1;" vertex="1" parent="1">
          <mxGeometry x="790" y="407" width="160" height="86" as="geometry" />
        </mxCell>
        <mxCell id="sMjB-3dtgPWKzl6bNJH_-18" value="+ notes: List&amp;lt;Note&amp;gt;" style="text;strokeColor=none;fillColor=none;align=left;verticalAlign=top;spacingLeft=4;spacingRight=4;overflow=hidden;rotatable=0;points=[[0,0.5],[1,0.5]];portConstraint=eastwest;whiteSpace=wrap;html=1;" vertex="1" parent="sMjB-3dtgPWKzl6bNJH_-17">
          <mxGeometry y="26" width="160" height="26" as="geometry" />
        </mxCell>
        <mxCell id="sMjB-3dtgPWKzl6bNJH_-19" value="" style="line;strokeWidth=1;fillColor=none;align=left;verticalAlign=middle;spacingTop=-1;spacingLeft=3;spacingRight=3;rotatable=0;labelPosition=right;points=[];portConstraint=eastwest;strokeColor=inherit;" vertex="1" parent="sMjB-3dtgPWKzl6bNJH_-17">
          <mxGeometry y="52" width="160" height="8" as="geometry" />
        </mxCell>
        <mxCell id="sMjB-3dtgPWKzl6bNJH_-20" value="+ getAllNotes(): List&amp;lt;Note&amp;gt;" style="text;strokeColor=none;fillColor=none;align=left;verticalAlign=top;spacingLeft=4;spacingRight=4;overflow=hidden;rotatable=0;points=[[0,0.5],[1,0.5]];portConstraint=eastwest;whiteSpace=wrap;html=1;" vertex="1" parent="sMjB-3dtgPWKzl6bNJH_-17">
          <mxGeometry y="60" width="160" height="26" as="geometry" />
        </mxCell>
        <mxCell id="sMjB-3dtgPWKzl6bNJH_-22" value="" style="edgeStyle=orthogonalEdgeStyle;rounded=0;orthogonalLoop=1;jettySize=auto;html=1;" edge="1" parent="1" source="sMjB-3dtgPWKzl6bNJH_-14" target="sMjB-3dtgPWKzl6bNJH_-23">
          <mxGeometry relative="1" as="geometry">
            <mxPoint x="520" y="480" as="sourcePoint" />
            <mxPoint x="660" y="406" as="targetPoint" />
          </mxGeometry>
        </mxCell>
        <mxCell id="sMjB-3dtgPWKzl6bNJH_-23" value="Implements" style="rhombus;whiteSpace=wrap;html=1;" vertex="1" parent="1">
          <mxGeometry x="620" y="410" width="80" height="80" as="geometry" />
        </mxCell>
        <mxCell id="sMjB-3dtgPWKzl6bNJH_-26" value="" style="edgeStyle=orthogonalEdgeStyle;rounded=0;orthogonalLoop=1;jettySize=auto;html=1;" edge="1" parent="1" source="sMjB-3dtgPWKzl6bNJH_-14" target="sMjB-3dtgPWKzl6bNJH_-27">
          <mxGeometry relative="1" as="geometry">
            <mxPoint x="425" y="410" as="sourcePoint" />
            <mxPoint x="402" y="296" as="targetPoint" />
          </mxGeometry>
        </mxCell>
        <mxCell id="sMjB-3dtgPWKzl6bNJH_-27" value="Autowired" style="rhombus;whiteSpace=wrap;html=1;" vertex="1" parent="1">
          <mxGeometry x="385" y="228" width="80" height="80" as="geometry" />
        </mxCell>
        <mxCell id="sMjB-3dtgPWKzl6bNJH_-32" style="rounded=0;orthogonalLoop=1;jettySize=auto;html=1;" edge="1" parent="1" source="sMjB-3dtgPWKzl6bNJH_-30" target="sMjB-3dtgPWKzl6bNJH_-6">
          <mxGeometry relative="1" as="geometry" />
        </mxCell>
        <mxCell id="sMjB-3dtgPWKzl6bNJH_-33" style="rounded=0;orthogonalLoop=1;jettySize=auto;html=1;" edge="1" parent="1" source="sMjB-3dtgPWKzl6bNJH_-30" target="sMjB-3dtgPWKzl6bNJH_-14">
          <mxGeometry relative="1" as="geometry" />
        </mxCell>
        <mxCell id="sMjB-3dtgPWKzl6bNJH_-34" style="rounded=0;orthogonalLoop=1;jettySize=auto;html=1;" edge="1" parent="1" source="sMjB-3dtgPWKzl6bNJH_-30" target="sMjB-3dtgPWKzl6bNJH_-17">
          <mxGeometry relative="1" as="geometry" />
        </mxCell>
        <mxCell id="sMjB-3dtgPWKzl6bNJH_-30" value="Dependency" style="rhombus;whiteSpace=wrap;html=1;" vertex="1" parent="1">
          <mxGeometry x="580" y="250" width="80" height="80" as="geometry" />
        </mxCell>
      </root>
    </mxGraphModel>
  </diagram>
</mxfile>
